<?xml version="1.0" encoding="utf-8"?>
<!-- Generator: Adobe Illustrator 19.2.0, SVG Export Plug-In . SVG Version: 6.00 Build 0)  -->
<svg version="1.1" id="Capa_1" xmlns="http://www.w3.org/2000/svg" xmlns:xlink="http://www.w3.org/1999/xlink" x="0px" y="0px"
	 viewBox="0 0 248.7 248.7" style="enable-background:new 0 0 248.7 248.7;" xml:space="preserve">
<style type="text/css">
	.st0{fill:none;stroke:#FFFFFF;stroke-width:10;stroke-miterlimit:10;}
</style>
<path class="st0" d="M233.8,169.4c-1.6-5-8.8-12.3-7.9-22.1c0.9-9.8,8.6-32.1,6.6-41.6c-2-9.5-12.1-37.5-38.3-41.8
	c-26.1-4.2-44.9,2.8-54.9,2.3c-10-0.5-11.8-8-22.9-7.9c-14.3,0.1-16.7,6.1-26.8,9.2C82.2,69.9,59,69.9,59,69.9s-6.6-8.7-8.7-5.5
	c-2,3.2-4.6,11.3-4.6,11.3S33.3,80,32.1,82.3c-1.2,2.3-2.7,6.1-2.7,6.1S16.2,91.8,14.8,95c-1.4,3.2,5.8,10.7,8.1,13.3
	c2.3,2.6,29.2,3.2,33.4,6.3c4.3,3.1,16.2,5.5,22.8,6.6c12.5,2.1,18,26.9,21.1,54.4c-3.8,3.2-10.4,6-10.8,14.8h40.7
	c0,0,0.5-5.8,1.2-13.1c0.7-7.2,13-34.6,13-34.6s8.9,6.9,15,7.2c-0.6,5.5,2,11.3,2,11.3s5.2,6.3,10.3,11.3c-9.3,3.8-9,10.6-9,10.6
	l34.5,0.3c0,0,3.5-7.2,3.5-13c4.6,6.6,13.6,9.2,13.6,9.2l-5.6,10.8h21.1C229.8,190.3,235.3,174.4,233.8,169.4z"/>
</svg>
