<?xml version="1.0" standalone="no"?>
<!DOCTYPE svg PUBLIC "-//W3C//DTD SVG 20010904//EN"
 "http://www.w3.org/TR/2001/REC-SVG-20010904/DTD/svg10.dtd">
<svg version="1.0" xmlns="http://www.w3.org/2000/svg"
 width="370.000000pt" height="370.000000pt" viewBox="0 0 370.000000 370.000000"
 preserveAspectRatio="xMidYMid meet">
<metadata>
Created by potrace 1.11, written by Peter Selinger 2001-2013
</metadata>
<g transform="translate(0.000000,370.000000) scale(0.100000,-0.100000)"
fill="#000000" stroke="none">
<path d="M2658 2905 c-2 -2 -33 -6 -69 -9 -72 -7 -89 -10 -194 -32 -239 -50
-549 -180 -830 -350 -60 -36 -119 -71 -130 -78 -144 -82 -552 -398 -805 -624
-112 -100 -630 -620 -630 -632 0 -6 30 20 68 56 417 410 1106 834 1942 1196
90 39 360 149 525 213 71 27 266 96 415 145 l174 58 -39 11 c-59 15 -124 28
-180 36 -50 7 -242 15 -247 10z"/>
<path d="M2258 2284 c-109 -15 -234 -43 -358 -80 -47 -15 -85 -25 -86 -23 0 2
-7 -1 -15 -7 -8 -6 -32 -17 -54 -24 -22 -7 -68 -26 -103 -41 -34 -16 -65 -29
-68 -29 -16 0 -318 -157 -393 -204 -22 -15 -43 -26 -46 -26 -4 0 -84 -51 -178
-113 -270 -179 -486 -344 -762 -583 -145 -125 -216 -196 -110 -109 100 83 249
191 285 208 8 4 38 21 65 38 101 61 448 219 481 219 4 0 27 -20 51 -45 25 -24
74 -60 109 -80 60 -34 234 -97 299 -108 17 -3 41 -8 55 -11 13 -3 42 -8 65
-11 22 -3 58 -8 80 -11 83 -12 115 -14 285 -18 140 -3 195 0 275 14 147 27
152 28 249 61 196 65 338 170 403 297 l28 54 64 -6 c35 -4 67 -8 70 -11 4 -2
25 -6 47 -9 111 -13 477 -96 617 -139 26 -8 47 -13 47 -11 0 10 -46 94 -93
169 -152 244 -336 420 -552 529 -84 42 -228 90 -299 101 -17 2 -42 7 -56 10
-51 13 -308 12 -402 -1z m-448 -654 c0 -3 -11 -16 -24 -30 -49 -52 -90 -83
-143 -107 -73 -34 -164 -30 -243 10 -60 30 -96 54 -89 61 2 2 31 7 64 10 33 4
67 9 75 11 8 2 35 7 60 10 25 3 72 10 105 15 33 5 80 12 105 15 25 4 47 8 48
10 6 6 42 1 42 -5z"/>
<path d="M3585 1234 c-49 -13 -106 -27 -125 -30 -19 -3 -52 -10 -73 -15 -21
-6 -73 -17 -115 -24 -43 -8 -87 -16 -98 -19 -12 -2 -37 -7 -55 -10 -19 -3 -79
-12 -134 -21 -55 -9 -111 -18 -125 -20 -14 -2 -47 -7 -75 -10 -27 -3 -63 -7
-80 -9 -16 -3 -57 -7 -90 -10 -33 -4 -73 -8 -90 -10 -16 -3 -66 -7 -110 -11
-44 -4 -91 -8 -105 -10 -14 -2 -74 -7 -135 -10 -60 -4 -128 -9 -150 -11 -128
-10 -445 -18 -750 -17 -319 0 -433 3 -730 18 l-100 5 24 -21 c113 -96 342
-171 596 -195 143 -14 514 -8 665 11 260 32 378 49 491 70 74 13 152 27 174
30 22 3 46 8 54 11 7 2 68 16 135 30 66 15 148 33 181 40 33 8 71 16 85 19 38
8 309 79 455 120 72 20 137 38 145 40 84 23 240 72 246 78 12 11 -15 7 -111
-19z"/>
</g>
</svg>
